<?xml version="1.0" encoding="UTF-8"?>
<svg width="214px" height="198px" viewBox="0 0 214 198" version="1.1" xmlns="http://www.w3.org/2000/svg" xmlns:xlink="http://www.w3.org/1999/xlink">
    <!-- Generator: Sketch 48.2 (47327) - http://www.bohemiancoding.com/sketch -->
    <title>Group 47</title>
    <desc>Created with Sketch.</desc>
    <defs></defs>
    <g id="Artboard" stroke="none" stroke-width="1" fill="none" fill-rule="evenodd" transform="translate(-293.000000, -202.000000)">
        <g id="Group-47" transform="translate(294.000000, 203.000000)">
            <path d="M89.481,193.1038 L11.133,193.1038 C5.33,193.1038 0.582,188.3558 0.582,182.5528 L0.582,12.6858 C0.582,6.8818 5.33,2.1338 11.133,2.1338 L89.481,2.1338 C95.284,2.1338 100.032,6.8818 100.032,12.6858 L100.032,182.5528 C100.032,188.3558 95.284,193.1038 89.481,193.1038 Z" id="Stroke-1" stroke="#4D74AA" stroke-width="2.3"></path>
            <path d="M56.4478,179.2981 C56.4478,183.3431 53.1688,186.6211 49.1238,186.6211 C45.0788,186.6211 41.8008,183.3431 41.8008,179.2981 C41.8008,175.2531 45.0788,171.9741 49.1238,171.9741 C53.1688,171.9741 56.4478,175.2531 56.4478,179.2981 Z" id="Stroke-3" stroke="#4D74AA" stroke-width="2.3"></path>
            <path d="M92.6074,164.8137 L8.0064,164.8137 C7.3024,164.8137 6.7254,164.2377 6.7254,163.5337 L6.7254,27.5367 C6.7254,26.8327 7.3024,26.2557 8.0064,26.2557 L92.6074,26.2557 C93.3124,26.2557 93.8884,26.8327 93.8884,27.5367 L93.8884,163.5337 C93.8884,164.2377 93.3124,164.8137 92.6074,164.8137 Z" id="Stroke-5" stroke="#4D74AA" stroke-width="2.3"></path>
            <path d="M56.6147,15.8259 L43.9987,15.8259 C43.3337,15.8259 42.7897,15.2819 42.7897,14.6169 L42.7897,13.4869 C42.7897,12.8219 43.3337,12.2779 43.9987,12.2779 L56.6147,12.2779 C57.2797,12.2779 57.8237,12.8219 57.8237,13.4869 L57.8237,14.6169 C57.8237,15.2819 57.2797,15.8259 56.6147,15.8259 Z" id="Stroke-7" stroke="#4D74AA" stroke-width="2.3"></path>
            <path d="M36.9482,53.8245 C36.9482,60.3575 31.6532,65.6525 25.1202,65.6525 C18.5872,65.6525 13.2922,60.3575 13.2922,53.8245 C13.2922,47.2925 18.5872,41.9965 25.1202,41.9965 C31.6532,41.9965 36.9482,47.2925 36.9482,53.8245" id="Fill-9" fill="#F16C6A"></path>
            <path d="M6.7256,73.4182 L93.8886,73.4182" id="Stroke-11" stroke="#4D74AA" stroke-width="2.3"></path>
            <path d="M84.3677,50.72 L46.0257,50.72 C44.8967,50.72 43.9727,49.796 43.9727,48.667 L43.9727,47.45 C43.9727,46.321 44.8967,45.397 46.0257,45.397 L84.3677,45.397 C85.4967,45.397 86.4207,46.321 86.4207,47.45 L86.4207,48.667 C86.4207,49.796 85.4967,50.72 84.3677,50.72" id="Fill-13" fill="#8FAED2"></path>
            <path d="M71.665,62.2522 L45.95,62.2522 C44.862,62.2522 43.973,61.3622 43.973,60.2752 L43.973,59.1032 C43.973,58.0162 44.862,57.1272 45.95,57.1272 L71.665,57.1272 C72.752,57.1272 73.642,58.0162 73.642,59.1032 L73.642,60.2752 C73.642,61.3622 72.752,62.2522 71.665,62.2522" id="Fill-15" fill="#8FAED2"></path>
            <path d="M6.7256,34.7781 L93.8886,34.7781" id="Stroke-17" stroke="#4D74AA" stroke-width="2.3"></path>
            <path d="M32.8286,101.0735 L14.3736,101.0735 C13.6976,101.0735 13.1436,100.5195 13.1436,99.8435 L13.1436,81.3885 C13.1436,80.7125 13.6976,80.1585 14.3736,80.1585 L32.8286,80.1585 C33.5046,80.1585 34.0586,80.7125 34.0586,81.3885 L34.0586,99.8435 C34.0586,100.5195 33.5046,101.0735 32.8286,101.0735" id="Fill-19" fill="#F16C6A"></path>
            <path d="M59.3369,101.0735 L40.8819,101.0735 C40.2059,101.0735 39.6519,100.5195 39.6519,99.8435 L39.6519,81.3885 C39.6519,80.7125 40.2059,80.1585 40.8819,80.1585 L59.3369,80.1585 C60.0139,80.1585 60.5669,80.7125 60.5669,81.3885 L60.5669,99.8435 C60.5669,100.5195 60.0139,101.0735 59.3369,101.0735" id="Fill-21" fill="#F8A03E"></path>
            <path d="M86.064,101.0735 L67.609,101.0735 C66.933,101.0735 66.379,100.5195 66.379,99.8435 L66.379,81.3885 C66.379,80.7125 66.933,80.1585 67.609,80.1585 L86.064,80.1585 C86.74,80.1585 87.294,80.7125 87.294,81.3885 L87.294,99.8435 C87.294,100.5195 86.74,101.0735 86.064,101.0735" id="Fill-23" fill="#89C551"></path>
            <path d="M7.9087,148.5266 L93.8877,148.5266" id="Stroke-25" stroke="#4D74AA" stroke-width="2.3"></path>
            <path d="M211.7568,100.3059 L211.7568,94.9309 L211.7568,11.2699 C211.7568,11.2699 212.9398,5.4639 205.8428,3.1409 C198.7458,0.8189 169.7678,0.2379 163.2618,0.2379 C156.7558,0.2379 127.7778,0.8189 120.6808,3.1409 C113.5838,5.4639 114.7668,11.2699 114.7668,11.2699 L114.7668,94.9309 L114.7668,100.3059 L114.7668,183.9669 C114.7668,183.9669 113.5838,189.7739 120.6808,192.0969 C127.7778,194.4189 156.7558,194.9999 163.2618,194.9999 C169.7678,194.9999 198.7458,194.4189 205.8428,192.0969 C212.9398,189.7739 211.7568,183.9669 211.7568,183.9669 L211.7568,100.3059 Z" id="Stroke-27" stroke="#4D74AA" stroke-width="2.3"></path>
            <polygon id="Stroke-29" stroke="#4D74AA" stroke-width="2.3" points="119.202 174.623 207.321 174.623 207.321 17.31 119.202 17.31"></polygon>
            <path d="M164.4443,9.4421 C164.4443,10.7491 163.3853,11.8081 162.0793,11.8081 C160.7723,11.8081 159.7133,10.7491 159.7133,9.4421 C159.7133,8.1361 160.7723,7.0771 162.0793,7.0771 C163.3853,7.0771 164.4443,8.1361 164.4443,9.4421 Z" id="Stroke-31" stroke="#4D74AA" stroke-width="2.3"></path>
            <path d="M119.2021,156.3372 L207.3211,156.3372" id="Stroke-32" stroke="#4D74AA" stroke-width="2.3"></path>
            <path d="M165.959,165.5266 C165.959,167.8136 164.164,169.6676 161.949,169.6676 C159.734,169.6676 157.939,167.8136 157.939,165.5266 C157.939,163.2406 159.734,161.3866 161.949,161.3866 C164.164,161.3866 165.959,163.2406 165.959,165.5266 Z" id="Stroke-33" stroke="#4D74AA" stroke-width="2.3"></path>
            <path d="M190.8975,169.6672 L184.1215,169.6672 C183.7085,169.6672 183.3695,169.3282 183.3695,168.9152 L183.3695,162.1392 C183.3695,161.7252 183.7085,161.3872 184.1215,161.3872 L190.8975,161.3872 C191.3115,161.3872 191.6495,161.7252 191.6495,162.1392 L191.6495,168.9152 C191.6495,169.3282 191.3115,169.6672 190.8975,169.6672 Z" id="Stroke-34" stroke="#4D74AA" stroke-width="2.3"></path>
            <path d="M139.8789,170.0735 L132.5409,165.8945 C132.3309,165.7755 132.3309,165.4735 132.5399,165.3525 L139.8599,161.1455 C140.0679,161.0255 140.3279,161.1765 140.3279,161.4155 L140.3459,169.8015 C140.3459,170.0415 140.0869,170.1915 139.8789,170.0735 Z" id="Stroke-35" stroke="#4D74AA" stroke-width="2.3"></path>
            <path d="M119.2021,26.7981 L207.3211,26.2561" id="Stroke-36" stroke="#4D74AA" stroke-width="2.3"></path>
            <path d="M119.2021,63.7542 L207.3211,63.7542" id="Stroke-37" stroke="#4D74AA" stroke-width="2.3"></path>
            <path d="M149.041,45.0378 C149.041,51.5698 143.746,56.8658 137.213,56.8658 C130.681,56.8658 125.385,51.5698 125.385,45.0378 C125.385,38.5048 130.681,33.2098 137.213,33.2098 C143.746,33.2098 149.041,38.5048 149.041,45.0378" id="Fill-38" fill="#F16C6A"></path>
            <path d="M196.4609,41.9329 L158.1179,41.9329 C156.9889,41.9329 156.0649,41.0089 156.0649,39.8799 L156.0649,38.6629 C156.0649,37.5339 156.9889,36.6099 158.1179,36.6099 L196.4609,36.6099 C197.5899,36.6099 198.5139,37.5339 198.5139,38.6629 L198.5139,39.8799 C198.5139,41.0089 197.5899,41.9329 196.4609,41.9329" id="Fill-39" fill="#8FAED2"></path>
            <path d="M183.7578,53.4651 L158.0428,53.4651 C156.9548,53.4651 156.0658,52.5751 156.0658,51.4881 L156.0658,50.3171 C156.0658,49.2291 156.9548,48.3401 158.0428,48.3401 L183.7578,48.3401 C184.8448,48.3401 185.7348,49.2291 185.7348,50.3171 L185.7348,51.4881 C185.7348,52.5751 184.8448,53.4651 183.7578,53.4651" id="Fill-40" fill="#8FAED2"></path>
            <path d="M146.0273,92.8582 L126.4843,92.8582 C125.7673,92.8582 125.1813,92.2722 125.1813,91.5562 L125.1813,72.0122 C125.1813,71.2962 125.7673,70.7092 126.4843,70.7092 L146.0273,70.7092 C146.7443,70.7092 147.3303,71.2962 147.3303,72.0122 L147.3303,91.5562 C147.3303,92.2722 146.7443,92.8582 146.0273,92.8582" id="Fill-41" fill="#F16C6A"></path>
            <path d="M172.918,92.8582 L153.374,92.8582 C152.658,92.8582 152.071,92.2722 152.071,91.5562 L152.071,72.0122 C152.071,71.2962 152.658,70.7092 153.374,70.7092 L172.918,70.7092 C173.635,70.7092 174.221,71.2962 174.221,72.0122 L174.221,91.5562 C174.221,92.2722 173.635,92.8582 172.918,92.8582" id="Fill-42" fill="#F8A03E"></path>
            <path d="M200.0391,92.8582 L180.4961,92.8582 C179.7791,92.8582 179.1931,92.2722 179.1931,91.5562 L179.1931,72.0122 C179.1931,71.2962 179.7791,70.7092 180.4961,70.7092 L200.0391,70.7092 C200.7561,70.7092 201.3421,71.2962 201.3421,72.0122 L201.3421,91.5562 C201.3421,92.2722 200.7561,92.8582 200.0391,92.8582" id="Fill-43" fill="#89C551"></path>
            <path d="M201.7031,141.2561 C201.7031,146.3181 197.5991,150.4231 192.5361,150.4231 C187.4741,150.4231 183.3691,146.3181 183.3691,141.2561 C183.3691,136.1941 187.4741,132.0891 192.5361,132.0891 C197.5991,132.0891 201.7031,136.1941 201.7031,141.2561 Z" id="Stroke-44" stroke="#4D74AA" stroke-width="2.3"></path>
            <path d="M191.5361,136.6223 L191.5361,145.4933 C191.5361,146.7803 193.5361,146.7823 193.5361,145.4933 L193.5361,136.6223 C193.5361,135.3353 191.5361,135.3333 191.5361,136.6223" id="Fill-45" fill="#4D74AA"></path>
            <path d="M188.1006,142.0579 L196.9716,142.0579 C198.2586,142.0579 198.2606,140.0579 196.9716,140.0579 L188.1006,140.0579 C186.8136,140.0579 186.8116,142.0579 188.1006,142.0579" id="Fill-46" fill="#4D74AA"></path>
        </g>
    </g>
</svg>