<?xml version="1.0" encoding="UTF-8"?>
<svg width="234px" height="185px" viewBox="0 0 234 185" version="1.1" xmlns="http://www.w3.org/2000/svg" xmlns:xlink="http://www.w3.org/1999/xlink">
    <!-- Generator: Sketch 48.2 (47327) - http://www.bohemiancoding.com/sketch -->
    <title>Group 111</title>
    <desc>Created with Sketch.</desc>
    <defs></defs>
    <g id="Artboard" stroke="none" stroke-width="1" fill="none" fill-rule="evenodd" transform="translate(-21.000000, -207.000000)">
        <g id="Group-111" transform="translate(23.000000, 208.000000)">
            <path d="M226.2886,145.9446 L3.8316,145.9446 C1.7246,145.9446 -0.0004,144.2196 -0.0004,142.1126 L-0.0004,4.1616 C-0.0004,2.0536 1.7246,0.3296 3.8316,0.3296 L226.2886,0.3296 C228.3956,0.3296 230.1206,2.0536 230.1206,4.1616 L230.1206,142.1126 C230.1206,144.2196 228.3956,145.9446 226.2886,145.9446 Z" id="Stroke-81" stroke="#4D74AA" stroke-width="2.3"></path>
            <polygon id="Stroke-83" stroke="#4D74AA" stroke-width="2.3" points="96.505 174.721 133.745 174.721 133.745 145.945 96.505 145.945"></polygon>
            <path d="M165.2334,182.6438 L65.0174,182.6438 C64.6484,182.6438 64.3454,182.3418 64.3454,181.9718 L64.3454,178.0818 C64.3454,176.2328 65.8574,174.7208 67.7054,174.7208 L162.5454,174.7208 C164.3934,174.7208 165.9054,176.2328 165.9054,178.0818 L165.9054,181.9718 C165.9054,182.3418 165.6034,182.6438 165.2334,182.6438 Z" id="Stroke-85" stroke="#4D74AA" stroke-width="2.3"></path>
            <path d="M0,124.4768 L230.12,124.4768" id="Stroke-86" stroke="#4D74AA" stroke-width="2.3"></path>
            <path d="M223.4937,119.3059 L6.7567,119.3059 C6.3577,119.3059 6.0317,118.9799 6.0317,118.5799 L6.0317,6.0419 C6.0317,5.6429 6.3577,5.3169 6.7567,5.3169 L223.4937,5.3169 C223.8927,5.3169 224.2197,5.6429 224.2197,6.0419 L224.2197,118.5799 C224.2197,118.9799 223.8927,119.3059 223.4937,119.3059" id="Fill-87" fill="#FDCC85"></path>
            <path d="M223.4937,119.3059 L6.7567,119.3059 C6.3577,119.3059 6.0317,118.9799 6.0317,118.5799 L6.0317,6.0419 C6.0317,5.6429 6.3577,5.3169 6.7567,5.3169 L223.4937,5.3169 C223.8927,5.3169 224.2197,5.6429 224.2197,6.0419 L224.2197,118.5799 C224.2197,118.9799 223.8927,119.3059 223.4937,119.3059 Z" id="Stroke-88" stroke="#4D74AA" stroke-width="2.3"></path>
            <path d="M118.5674,136.1106 C118.5674,138.0106 117.0264,139.5516 115.1254,139.5516 C113.2244,139.5516 111.6834,138.0106 111.6834,136.1106 C111.6834,134.2096 113.2244,132.6686 115.1254,132.6686 C117.0264,132.6686 118.5674,134.2096 118.5674,136.1106 Z" id="Stroke-89" stroke="#4D74AA" stroke-width="2.3"></path>
            <path d="M199.291,109.2083 L29.825,109.2083 C27.809,109.2083 26.173,107.5733 26.173,105.5573 L26.173,19.0663 C26.173,17.0573 27.817,15.4143 29.825,15.4143 L199.292,15.4143 C201.3,15.4143 202.943,17.0573 202.943,19.0653 L202.943,105.5573 C202.943,107.5733 201.308,109.2083 199.291,109.2083" id="Fill-90" fill="#FFFFFF"></path>
            <path d="M199.291,109.2083 L29.825,109.2083 C27.809,109.2083 26.173,107.5733 26.173,105.5573 L26.173,19.0663 C26.173,17.0573 27.817,15.4143 29.825,15.4143 L199.292,15.4143 C201.3,15.4143 202.943,17.0573 202.943,19.0653 L202.943,105.5573 C202.943,107.5733 201.308,109.2083 199.291,109.2083 Z" id="Stroke-91" stroke="#4D74AA" stroke-width="2.3"></path>
            <path d="M27.3076,29.4255 L204.0776,29.4255" id="Stroke-92" stroke="#4D74AA" stroke-width="2.3"></path>
            <path d="M82.79,29.4255 L82.79,109.2085" id="Stroke-93" stroke="#4D74AA" stroke-width="2.3"></path>
            <path d="M133.2744,45.9124 L92.9244,45.9124 C91.4034,45.9124 90.1594,44.6684 90.1594,43.1474 L90.1594,40.3364 C90.1594,38.8154 91.4034,37.5714 92.9244,37.5714 L133.2744,37.5714 C134.7954,37.5714 136.0394,38.8154 136.0394,40.3364 L136.0394,43.1474 C136.0394,44.6684 134.7954,45.9124 133.2744,45.9124 Z" id="Stroke-94" stroke="#4D74AA" stroke-width="2.3"></path>
            <path d="M191.7202,92.0208 L147.4652,92.0208 C145.7852,92.0208 144.4112,90.6468 144.4112,88.9678 L144.4112,53.5228 C144.4112,51.8438 145.7852,50.4698 147.4652,50.4698 L191.7202,50.4698 C193.4002,50.4698 194.7742,51.8438 194.7742,53.5228 L194.7742,88.9678 C194.7742,90.6468 193.4002,92.0208 191.7202,92.0208 Z" id="Stroke-95" stroke="#4D74AA" stroke-width="2.3"></path>
            <path d="M42.2451,41.4177 C42.2451,44.2817 39.9241,46.6037 37.0591,46.6037 C34.1951,46.6037 31.8731,44.2817 31.8731,41.4177 C31.8731,38.5537 34.1951,36.2317 37.0591,36.2317 C39.9241,36.2317 42.2451,38.5537 42.2451,41.4177" id="Fill-96" fill="#F16C6A"></path>
            <path d="M42.2451,60.2336 C42.2451,63.0976 39.9241,65.4196 37.0591,65.4196 C34.1951,65.4196 31.8731,63.0976 31.8731,60.2336 C31.8731,57.3696 34.1951,55.0476 37.0591,55.0476 C39.9241,55.0476 42.2451,57.3696 42.2451,60.2336" id="Fill-97" fill="#F16C6A"></path>
            <path d="M73.0728,42.9734 L50.9128,42.9734 C49.8468,42.9734 48.9748,42.1004 48.9748,41.0354 L48.9748,39.2944 C48.9748,38.2274 49.8468,37.3554 50.9128,37.3554 L73.0728,37.3554 C74.1388,37.3554 75.0108,38.2274 75.0108,39.2944 L75.0108,41.0354 C75.0108,42.1004 74.1388,42.9734 73.0728,42.9734" id="Fill-98" fill="#8FAED2"></path>
            <path d="M73.0728,61.7463 L50.9128,61.7463 C49.8468,61.7463 48.9748,60.8733 48.9748,59.8073 L48.9748,58.0673 C48.9748,57.0003 49.8468,56.1283 50.9128,56.1283 L73.0728,56.1283 C74.1388,56.1283 75.0108,57.0003 75.0108,58.0673 L75.0108,59.8073 C75.0108,60.8733 74.1388,61.7463 73.0728,61.7463" id="Fill-99" fill="#8FAED2"></path>
            <path d="M38.4067,22.2141 C38.4067,23.6961 37.2047,24.8981 35.7227,24.8981 C34.2407,24.8981 33.0387,23.6961 33.0387,22.2141 C33.0387,20.7321 34.2407,19.5301 35.7227,19.5301 C37.2047,19.5301 38.4067,20.7321 38.4067,22.2141" id="Fill-100" fill="#F16C6A"></path>
            <path d="M38.4067,22.2141 C38.4067,23.6961 37.2047,24.8981 35.7227,24.8981 C34.2407,24.8981 33.0387,23.6961 33.0387,22.2141 C33.0387,20.7321 34.2407,19.5301 35.7227,19.5301 C37.2047,19.5301 38.4067,20.7321 38.4067,22.2141 Z" id="Stroke-101" stroke="#F16C6A" stroke-width="2.3"></path>
            <path d="M48.9185,22.2141 C48.9185,23.6961 47.7165,24.8981 46.2345,24.8981 C44.7525,24.8981 43.5505,23.6961 43.5505,22.2141 C43.5505,20.7321 44.7525,19.5301 46.2345,19.5301 C47.7165,19.5301 48.9185,20.7321 48.9185,22.2141" id="Fill-102" fill="#F8A03E"></path>
            <path d="M48.9185,22.2141 C48.9185,23.6961 47.7165,24.8981 46.2345,24.8981 C44.7525,24.8981 43.5505,23.6961 43.5505,22.2141 C43.5505,20.7321 44.7525,19.5301 46.2345,19.5301 C47.7165,19.5301 48.9185,20.7321 48.9185,22.2141 Z" id="Stroke-103" stroke="#F89F3F" stroke-width="2.3"></path>
            <path d="M59.54,22.2141 C59.54,23.6961 58.338,24.8981 56.856,24.8981 C55.374,24.8981 54.172,23.6961 54.172,22.2141 C54.172,20.7321 55.374,19.5301 56.856,19.5301 C58.338,19.5301 59.54,20.7321 59.54,22.2141" id="Fill-104" fill="#89C551"></path>
            <path d="M59.54,22.2141 C59.54,23.6961 58.338,24.8981 56.856,24.8981 C55.374,24.8981 54.172,23.6961 54.172,22.2141 C54.172,20.7321 55.374,19.5301 56.856,19.5301 C58.338,19.5301 59.54,20.7321 59.54,22.2141 Z" id="Stroke-105" stroke="#89C550" stroke-width="2.3"></path>
            <path d="M171.8486,77.0618 C171.9376,76.7058 171.9896,76.3358 171.9896,75.9538 C171.9896,73.3538 169.8196,71.2458 167.1426,71.2458 C165.8776,71.2458 164.7296,71.7198 163.8676,72.4908 C162.7386,71.7088 161.3646,71.2458 159.8776,71.2458 C156.5076,71.2458 153.7036,73.6048 153.0836,76.7298 C151.2296,77.1648 149.8486,78.8038 149.8486,80.7658 C149.8486,83.0588 151.7346,84.9178 154.0616,84.9178 L154.0616,85.0228 L171.3556,85.0228 C173.6816,85.0228 175.5686,83.2348 175.5686,81.0278 C175.5686,78.9798 173.9426,77.2938 171.8486,77.0618 Z" id="Stroke-106" stroke="#4D74AA" stroke-width="2.3"></path>
            <path d="M188.8394,62.468 C188.8394,65.982 185.9904,68.83 182.4764,68.83 C178.9634,68.83 176.1144,65.982 176.1144,62.468 C176.1144,58.954 178.9634,56.106 182.4764,56.106 C185.9904,56.106 188.8394,58.954 188.8394,62.468" id="Fill-107" fill="#F8A03E"></path>
            <path d="M188.8394,62.468 C188.8394,65.982 185.9904,68.83 182.4764,68.83 C178.9634,68.83 176.1144,65.982 176.1144,62.468 C176.1144,58.954 178.9634,56.106 182.4764,56.106 C185.9904,56.106 188.8394,58.954 188.8394,62.468 Z" id="Stroke-108" stroke="#F89F3F" stroke-width="2.3"></path>
            <path d="M83.0386,99.6516 L203.1916,99.6516" id="Stroke-109" stroke="#4D74AA" stroke-width="2.3"></path>
            <path d="M92.9019,99.6516 L92.9019,108.4526" id="Stroke-110" stroke="#4D74AA" stroke-width="2.3"></path>
        </g>
    </g>
</svg>