<?xml version="1.0" encoding="UTF-8"?>
<svg width="233px" height="184px" viewBox="0 0 233 184" version="1.1" xmlns="http://www.w3.org/2000/svg" xmlns:xlink="http://www.w3.org/1999/xlink">
    <!-- Generator: Sketch 48.2 (47327) - http://www.bohemiancoding.com/sketch -->
    <title>Group 80</title>
    <desc>Created with Sketch.</desc>
    <defs></defs>
    <g id="Artboard" stroke="none" stroke-width="1" fill="none" fill-rule="evenodd" transform="translate(-545.000000, -208.000000)">
        <g id="Group-80" transform="translate(546.000000, 209.000000)">
            <path d="M226.4316,181.511 L4.8556,181.511 C2.5056,181.511 0.5826,179.588 0.5826,177.24 L0.5826,4.803 C0.5826,2.453 2.5056,0.531 4.8556,0.531 L226.4316,0.531 C228.7816,0.531 230.7026,2.453 230.7026,4.803 L230.7026,177.24 C230.7026,179.588 228.7816,181.511 226.4316,181.511 Z" id="Stroke-48" stroke="#4D74AA" stroke-width="2.3"></path>
            <path d="M1.8799,15.2244 L43.2609,15.2244" id="Stroke-50" stroke="#4D74AA" stroke-width="2.3"></path>
            <path d="M87.0605,45.8225 L48.1285,45.8225 C46.8915,45.8225 45.8785,44.8095 45.8785,43.5725 L45.8785,42.2385 C45.8785,41.0005 46.8915,39.9885 48.1285,39.9885 L87.0605,39.9885 C88.2975,39.9885 89.3105,41.0005 89.3105,42.2385 L89.3105,43.5725 C89.3105,44.8095 88.2975,45.8225 87.0605,45.8225" id="Fill-52" fill="#8FAED2"></path>
            <path d="M76.2314,58.4626 L48.0454,58.4626 C46.8544,58.4626 45.8784,57.4876 45.8784,56.2956 L45.8784,55.0116 C45.8784,53.8196 46.8544,52.8446 48.0454,52.8446 L76.2314,52.8446 C77.4234,52.8446 78.3984,53.8196 78.3984,55.0116 L78.3984,56.2956 C78.3984,57.4876 77.4234,58.4626 76.2314,58.4626" id="Fill-54" fill="#8FAED2"></path>
            <path d="M36.0195,50.5222 C36.0195,57.6822 30.2155,63.4862 23.0555,63.4862 C15.8955,63.4862 10.0905,57.6822 10.0905,50.5222 C10.0905,43.3622 15.8955,37.5572 23.0555,37.5572 C30.2155,37.5572 36.0195,43.3622 36.0195,50.5222" id="Fill-56" fill="#F16C6A"></path>
            <path d="M1.8799,73.426 L231.9999,73.426" id="Stroke-58" stroke="#4D74AA" stroke-width="2.3"></path>
            <path d="M165.6221,116.9377 L16.0201,116.9377 C14.6451,116.9377 13.5201,115.8127 13.5201,114.4377 L13.5201,84.4337 C13.5201,83.0587 14.6451,81.9337 16.0201,81.9337 L165.6221,81.9337 C166.9971,81.9337 168.1221,83.0587 168.1221,84.4337 L168.1221,114.4377 C168.1221,115.8127 166.9971,116.9377 165.6221,116.9377 Z" id="Stroke-60" stroke="#4D74AA" stroke-width="2.3"></path>
            <path d="M168.1221,181.511 L13.5201,181.511 L13.5201,168.25 C13.5201,167.048 14.5041,166.064 15.7061,166.064 L165.9351,166.064 C167.1381,166.064 168.1221,167.048 168.1221,168.25 L168.1221,181.511 Z" id="Stroke-62" stroke="#4D74AA" stroke-width="2.3"></path>
            <path d="M219.6836,181.511 L179.9256,181.511 L179.9256,85.138 C179.9256,83.375 181.3686,81.933 183.1306,81.933 L216.4796,81.933 C218.2426,81.933 219.6836,83.375 219.6836,85.138 L219.6836,181.511 Z" id="Stroke-64" stroke="#4D74AA" stroke-width="2.3"></path>
            <path d="M165.6221,158.7327 L16.0201,158.7327 C14.6451,158.7327 13.5201,157.6077 13.5201,156.2327 L13.5201,126.2277 C13.5201,124.8527 14.6451,123.7277 16.0201,123.7277 L165.6221,123.7277 C166.9971,123.7277 168.1221,124.8527 168.1221,126.2277 L168.1221,156.2327 C168.1221,157.6077 166.9971,158.7327 165.6221,158.7327 Z" id="Stroke-66" stroke="#4D74AA" stroke-width="2.3"></path>
            <path d="M13.2236,8.3269 C13.2236,10.1169 11.7726,11.5679 9.9826,11.5679 C8.1926,11.5679 6.7416,10.1169 6.7416,8.3269 C6.7416,6.5369 8.1926,5.0859 9.9826,5.0859 C11.7726,5.0859 13.2236,6.5369 13.2236,8.3269" id="Fill-68" fill="#F16C6A"></path>
            <path d="M24.3516,8.3269 C24.3516,10.1169 22.9006,11.5679 21.1106,11.5679 C19.3206,11.5679 17.8696,10.1169 17.8696,8.3269 C17.8696,6.5369 19.3206,5.0859 21.1106,5.0859 C22.9006,5.0859 24.3516,6.5369 24.3516,8.3269" id="Fill-70" fill="#F8A03E"></path>
            <path d="M36.0195,8.3269 C36.0195,10.1169 34.5685,11.5679 32.7785,11.5679 C30.9885,11.5679 29.5375,10.1169 29.5375,8.3269 C29.5375,6.5369 30.9885,5.0859 32.7785,5.0859 C34.5685,5.0859 36.0195,6.5369 36.0195,8.3269" id="Fill-72" fill="#89C551"></path>
            <path d="M0.583,27.5388 L230.703,27.5388" id="Stroke-74" stroke="#4D74AA" stroke-width="2.3"></path>
            <polyline id="Stroke-76" stroke="#4D74AA" stroke-width="2.3" points="41.9639 15.4177 47.4859 4.7267 93.0089 4.7267 97.9489 15.4177"></polyline>
            <path d="M97.9492,14.824 L230.7032,14.824" id="Stroke-78" stroke="#4D74AA" stroke-width="2.3"></path>
        </g>
    </g>
</svg>